<svg width="57" height="57" viewBox="0 0 57 57" fill="none" xmlns="http://www.w3.org/2000/svg">
<path d="M28.5 0C12.825 0 0 12.8479 0 28.6717C0 42.9789 10.431 54.8539 24.054 57V36.9699H16.815V28.6717H24.054V22.3479C24.054 15.1657 28.3005 11.2169 34.827 11.2169C37.9335 11.2169 41.1825 11.7605 41.1825 11.7605V18.8283H37.5915C34.0575 18.8283 32.946 21.0316 32.946 23.2922V28.6717H40.8689L39.5865 36.9699H32.946V57C39.6618 55.9351 45.7772 52.4947 50.1882 47.2999C54.5992 42.105 57.0152 35.4981 56.9999 28.6717C56.9999 12.8479 44.1749 0 28.5 0Z" fill="#000CEF"/>
</svg>
