<svg width="217" height="79" viewBox="0 0 217 79" fill="none" xmlns="http://www.w3.org/2000/svg">
<path d="M46.5267 16.6051C46.2645 16.3346 45.853 16.2556 45.5115 16.4174L1.03849 36.7612C0.684074 36.9269 0.473762 37.3022 0.526989 37.6904C0.580216 38.0826 0.87621 38.388 1.26568 38.4527L21.2102 41.7851L23.4938 60.576C23.5418 60.9681 23.8391 61.2813 24.2286 61.3473C24.2818 61.3563 24.3337 61.3602 24.3817 61.3602C24.718 61.3602 25.0334 61.1726 25.1853 60.862L46.6877 17.6236C46.8552 17.2858 46.789 16.8794 46.5267 16.6051Z" fill="#000CEF"/>
<path d="M59.5439 32.972L62.3909 0H70.684L75.2965 11.9371C76.0819 13.9262 76.7518 15.7522 77.3088 17.4165C77.8644 19.0795 78.224 20.2532 78.3876 20.9391L78.6329 21.9175C79.1561 19.7654 80.3012 16.4381 82.068 11.9384L86.7299 0.00129343H95.023L98.458 32.9733H90.9011L89.6743 20.2054L89.0369 10.5679C88.1852 13.0138 87.0078 16.2259 85.5031 20.2054L80.8412 32.6304H76.3753L71.7628 20.2054C71.0098 18.1839 70.3724 16.3734 69.8492 14.7752C69.326 13.1782 68.982 12.0678 68.8184 11.4479L68.5731 10.5679C68.5731 12.8844 68.4264 16.0965 68.1317 20.2054L67.1022 32.9733H59.5439V32.972Z" fill="#0098FF"/>
<path d="M104.593 32.972V0H112.15V32.972H104.593Z" fill="#0098FF"/>
<path d="M119.02 32.972V0H127.313L135.018 13.6493C136.099 15.5736 137.038 17.3751 137.841 19.0549C138.642 20.7347 139.157 21.9162 139.387 22.6021L139.779 23.6788C139.452 21.2653 139.288 17.9225 139.288 13.6506V0H146.845V32.972H138.552L130.651 19.3228C129.604 17.5614 128.681 15.8247 127.878 14.1126C127.076 12.4004 126.528 11.1373 126.235 10.3207L125.841 9.09778C126.332 12.0329 126.577 15.4416 126.577 19.3215V32.9707H119.02V32.972Z" fill="#0098FF"/>
<path d="M172.903 0H180.509V32.972H172.903V19.8119H160.782V32.9707H153.225V0H160.782V13.4047H172.903V0Z" fill="#0098FF"/>
<path d="M208.334 32.972L206.322 26.2205H194.74L192.728 32.972H184.827L195.869 0H205.39L216.431 32.972H208.334ZM196.557 20.1549H204.507L204.163 18.9811C203.214 15.7859 202.437 13.0617 201.833 10.8112C201.228 8.56071 200.859 7.10999 200.728 6.45774L200.532 5.47937C200.269 7.27305 199.06 11.7741 196.901 18.9811L196.557 20.1549Z" fill="#0098FF"/>
<path d="M77.3088 77.9044L70.1439 66.4565H67.837V77.9044H60.2801V44.9324H71.7148C75.4108 44.9324 78.3798 45.9108 80.6218 47.8675C82.8626 49.8243 83.9842 52.3672 83.9842 55.4991C83.9842 60.1955 81.972 63.4412 77.9475 65.2336L86.3392 77.9044H77.3088ZM67.837 51.0472V60.3417H71.4188C74.6903 60.3417 76.326 58.7448 76.326 55.5469C76.326 54.1454 75.9002 53.0441 75.0499 52.2443C74.1983 51.4458 73.0376 51.0459 71.5655 51.0459H67.837V51.0472Z" fill="#000CEF"/>
<path d="M89.1836 61.3201C89.1836 56.2652 90.6479 52.1809 93.5767 49.0659C96.5042 45.9522 100.405 44.3941 105.28 44.3941C110.187 44.3941 114.096 45.9432 117.01 49.0413C119.921 52.1395 121.377 56.2315 121.377 61.3201C121.377 66.375 119.912 70.4606 116.985 73.5743C114.056 76.6893 110.155 78.2461 105.28 78.2461C100.373 78.2461 96.4627 76.697 93.5521 73.5989C90.6389 70.5007 89.1836 66.4086 89.1836 61.3201ZM99.4408 53.9577C98.001 55.7682 97.2818 58.2219 97.2818 61.3201C97.2818 64.4195 98.001 66.8719 99.4408 68.6824C100.88 70.4929 102.828 71.3975 105.28 71.3975C107.734 71.3975 109.68 70.4929 111.12 68.6824C112.559 66.8719 113.278 64.4195 113.278 61.3201C113.278 58.2219 112.558 55.7682 111.12 53.9577C109.68 52.1472 107.734 51.2426 105.28 51.2426C102.827 51.2426 100.88 52.1472 99.4408 53.9577Z" fill="#000CEF"/>
<path d="M148.564 44.9324V50.9981H140.516V77.9044H132.91V50.9981H124.813V44.9324H148.564Z" fill="#000CEF"/>
<path d="M174.671 77.9044L172.659 71.1529H161.078L159.065 77.9044H151.164L162.207 44.9324H171.727L182.768 77.9044H174.671ZM162.894 65.0873H170.844L170.5 63.9135C169.551 60.717 168.773 57.9942 168.17 55.7437C167.563 53.4931 167.196 52.0424 167.065 51.3902L166.869 50.4118C166.607 52.2055 165.397 56.7065 163.238 63.9135L162.894 65.0873Z" fill="#000CEF"/>
</svg>
