<svg width="108" height="108" viewBox="0 0 108 108" fill="none" xmlns="http://www.w3.org/2000/svg">
<path d="M13.2702 91.9152H86.4574C86.5149 91.9152 86.5721 91.9181 86.6291 91.9239C86.6744 91.9285 86.7187 91.9358 86.7631 91.9439C86.7741 91.946 86.7856 91.9466 86.7966 91.9489C86.8513 91.9597 86.9048 91.9735 86.9575 91.9894C87.0197 92.0082 87.0781 92.0294 87.1346 92.0537L98.1499 96.643C98.7922 96.9107 99.2106 97.5383 99.2106 98.2338C99.2106 98.9296 98.7924 99.5572 98.1502 99.8247L87.1358 104.414C87.028 104.461 86.9145 104.496 86.7966 104.52C86.786 104.522 86.775 104.523 86.7644 104.525C86.7199 104.533 86.6751 104.54 86.6293 104.545C86.5723 104.55 86.5151 104.553 86.4577 104.553H13.2704C10.7998 104.553 8.7896 102.543 8.7896 100.072V96.3955C8.78937 93.9251 10.7995 91.9152 13.2702 91.9152ZM84.734 95.362H26.7128V101.107H84.734V95.362ZM23.266 95.362H19.8192V101.107H23.266V95.362ZM88.1809 96.2234V100.245L93.0064 98.2338L88.1809 96.2234ZM12.2362 100.072C12.2362 100.633 12.7098 101.107 13.2702 101.107H16.3723V95.362H13.2702C12.7098 95.362 12.2362 95.8353 12.2362 96.3955V100.072Z" fill="#0098FF"/>
<path d="M0.291145 64.7239C0.283791 64.7131 0.277809 64.7016 0.27092 64.6906C0.247711 64.654 0.224731 64.6173 0.204056 64.5789C0.199455 64.5706 0.196014 64.5617 0.19165 64.5532C0.17028 64.5116 0.14959 64.4695 0.131668 64.4263C0.129143 64.4201 0.127304 64.4139 0.124779 64.4077C0.106392 64.362 0.0891647 64.3156 0.0746841 64.268C0.0726166 64.2611 0.0712357 64.254 0.069397 64.2471C0.0558395 64.2004 0.0434341 64.1531 0.033783 64.1049C0.0307922 64.0904 0.0296478 64.0754 0.0271225 64.061C0.0199966 64.0203 0.0128708 63.9794 0.00873566 63.9376C0.00299072 63.8808 0 63.8234 0 63.7657V5.16994C0 4.21816 0.771629 3.44653 1.7234 3.44653H106.277C107.228 3.44653 108 4.21816 108 5.16994V84.4465C108 85.3983 107.228 86.1699 106.277 86.1699H22.4043C22.3466 86.1699 22.2891 86.167 22.2321 86.1612C22.1903 86.1571 22.1497 86.1499 22.1087 86.1428C22.0943 86.1403 22.0793 86.1391 22.0649 86.1362C22.0166 86.1265 21.9693 86.1141 21.9226 86.1003C21.9157 86.0982 21.9086 86.0971 21.9017 86.095C21.8541 86.0806 21.8077 86.0633 21.762 86.0449C21.7558 86.0424 21.7494 86.0406 21.7434 86.038C21.7 86.0201 21.6579 85.9994 21.6165 85.9781C21.608 85.9737 21.5993 85.9703 21.5908 85.9657C21.5524 85.945 21.5157 85.9222 21.4791 85.8988C21.4681 85.8917 21.4566 85.8857 21.4458 85.8786C21.4111 85.8554 21.378 85.8299 21.3452 85.8041C21.3337 85.7952 21.3217 85.7873 21.3105 85.7782C21.267 85.7423 21.2252 85.7046 21.1852 85.6649L0.505074 64.9845C0.465317 64.9447 0.427406 64.9029 0.391785 64.8592C0.382591 64.848 0.374786 64.836 0.365822 64.8245C0.340088 64.7917 0.314354 64.7588 0.291145 64.7239ZM104.553 6.89334H3.44681V62.0423H22.4043C23.356 62.0423 24.1277 62.8139 24.1277 63.7657V82.7231H104.553V6.89334ZM5.88393 65.4891L20.6809 80.286V65.4891H5.88393Z" fill="#0098FF"/>
<path d="M29.2979 73.5317H37.9149V30.8409H12.6383V56.8721C12.6383 57.8239 11.8667 58.5955 10.9149 58.5955C9.96311 58.5955 9.19148 57.8239 9.19148 56.8721V14.3615C9.19148 13.4097 9.96311 12.6381 10.9149 12.6381H83.2979C84.2497 12.6381 85.0213 13.4097 85.0213 14.3615C85.0213 15.3132 84.2497 16.0849 83.2979 16.0849H12.6383V27.3941H95.3617V16.0849H90.1915C89.2397 16.0849 88.4681 15.3132 88.4681 14.3615C88.4681 13.4097 89.2397 12.6381 90.1915 12.6381H97.0851C98.0369 12.6381 98.8085 13.4097 98.8085 14.3615V75.2551C98.8085 76.2069 98.0369 76.9785 97.0851 76.9785H29.2979C28.3461 76.9785 27.5745 76.2069 27.5745 75.2551C27.5745 74.3033 28.3461 73.5317 29.2979 73.5317ZM41.3617 73.5317H66.6383V30.8409H41.3617V73.5317ZM95.3617 30.8409H70.0851V73.5317H95.3617V30.8409Z" fill="#0098FF"/>
</svg>
